# xmcd
#
# Track frame offsets:
#	150
#	16012
#	31183
#	45816
#	59290
#	73265
#	87821
#	104184
#	117115
#	134372
#	149208
#	162668
#	183168
#	196825
#	216618
#	231138
#	247815
#	262638
#	283117
#	296950
#
# Disc length: 4345 seconds
#
# Revision: 0
# Processed by: cddbd v1.5.2PL0 Copyright (c) Steve Scherf et al.
# Submitted via: EasyCDDAExtractor 2010.6.0.0
#
DISCID=2b10f714
DTITLE=João Lucas and Diogo - Ao Vivo
DYEAR=2010
DGENRE=Sertanejo
TTITLE0=Então Cadê
TTITLE1=Um Dia Te Encontro
TTITLE2=Pout Pourri, Coisas Exotéricas - Mato E Morro Por Você
TTITLE3=Joga Fora
TTITLE4=Ja É
TTITLE5=Pout Pourri, Desculpe, Mas Eu Vou Chorar - Que Dure Para Sempre
TTITLE6=Papo Sério
TTITLE7=Te Amo De Graça
TTITLE8=Pout Pourri, O Que Tiver De Vir Virá - Faz Mais Uma Vez Comigo - Vem F
TTITLE8=icar Comigo
TTITLE9=Achei
TTITLE10=Me Namora - Versão Me Enamora
TTITLE11=Pout Pourri, Cuida De Mim - Cê Parece Um Anjo
TTITLE12=Chama Do Amor
TTITLE13=Si No Te Nubieras Ido
TTITLE14=Amor Ou Paixão
TTITLE15=Pout Pourri, Página De Amigos - Programa De Fim De Semana
TTITLE16=Só Penso Em Você
TTITLE17=Pout Pourri, A Loira Do Carro Branco - O Último Dos Apaixonados
TTITLE18=Vai Chorar
TTITLE19=Pout Pourri Show
EXTD=
EXTT0=
EXTT1=
EXTT2=
EXTT3=
EXTT4=
EXTT5=
EXTT6=
EXTT7=
EXTT8=
EXTT9=
EXTT10=
EXTT11=
EXTT12=
EXTT13=
EXTT14=
EXTT15=
EXTT16=
EXTT17=
EXTT18=
EXTT19=
PLAYORDER=
